<?xml version="1.0" encoding="UTF-8" standalone="no"?>
<svg
   xmlns:dc="http://purl.org/dc/elements/1.1/"
   xmlns:cc="http://creativecommons.org/ns#"
   xmlns:rdf="http://www.w3.org/1999/02/22-rdf-syntax-ns#"
   xmlns:svg="http://www.w3.org/2000/svg"
   xmlns="http://www.w3.org/2000/svg"
   xmlns:sodipodi="http://sodipodi.sourceforge.net/DTD/sodipodi-0.dtd"
   xmlns:inkscape="http://www.inkscape.org/namespaces/inkscape"
   version="1.0"
   width="356"
   height="367"
   id="svg2"
   inkscape:version="0.48.4 r9939"
   sodipodi:docname="SmileyOm.svg"
   inkscape:export-filename="/home/greg/Documents/Yoga/SmileyOm.png"
   inkscape:export-xdpi="90"
   inkscape:export-ydpi="90">
  <metadata
     id="metadata10">
    <rdf:RDF>
      <cc:Work
         rdf:about="">
        <dc:format>image/svg+xml</dc:format>
        <dc:type
           rdf:resource="http://purl.org/dc/dcmitype/StillImage" />
        <dc:title></dc:title>
      </cc:Work>
    </rdf:RDF>
  </metadata>
  <defs
     id="defs8" />
  <sodipodi:namedview
     pagecolor="#ffffff"
     bordercolor="#666666"
     borderopacity="1"
     objecttolerance="10"
     gridtolerance="10"
     guidetolerance="10"
     inkscape:pageopacity="0"
     inkscape:pageshadow="2"
     inkscape:window-width="1440"
     inkscape:window-height="850"
     id="namedview6"
     showgrid="false"
     inkscape:zoom="0.64305177"
     inkscape:cx="178"
     inkscape:cy="183.5"
     inkscape:window-x="0"
     inkscape:window-y="0"
     inkscape:window-maximized="1"
     inkscape:current-layer="svg2" />
  <path
     d="M 90.456847,353.9498 C 51.797347,340.13485 23.72672,305.75839 12.612487,258.6184 7.5684267,237.22321 6.1421397,201.86984 10.323594,201.86984 c 1.38924,0 5.099626,9.70072 8.245378,21.55716 6.88392,25.94452 18.625388,50.34155 29.967016,62.26707 18.838729,19.80835 65.499612,27.56622 92.385072,15.35987 20.94303,-9.5085 29.43591,-32.10791 20.32889,-54.09463 -7.03753,-16.98988 -23.00294,-22.67095 -52.74161,-18.76734 0,0 -18.225506,-19.61799 -24.031923,-54.45649 l 18.680963,1.69391 c 22.49993,2.04023 39.48794,-2.93334 48.30498,-14.14211 8.28529,-10.53309 8.10614,-14.60682 -1.11395,-25.32571 -13.30445,-15.46729 -37.1933,-11.54909 -85.561833,14.03365 L 40.381632,109.08518 50.613137,101.2812 c 25.64025,-19.556861 70.160433,-29.333871 95.496973,-20.972031 23.0783,7.61648 40.01713,37.838381 35.49236,63.323811 -3.0592,17.22988 -16.87495,41.36226 -27.54878,48.12041 l -9.20507,5.82823 12.71489,5.7336 c 21.60667,9.74311 34.7971,2.29512 50.5565,-28.54673 21.80948,-42.68159 35.95449,-53.73069 68.84657,-53.77798 15.31518,-0.022 20.7661,1.58448 31.93654,9.41259 27.87901,19.53706 43.05908,59.99383 39.72492,105.86962 -4.2233,58.10163 -31.7443,93.34329 -72.89389,93.34329 -22.58329,0 -37.13964,-7.92075 -48.72686,-26.51445 -10.17753,-16.33229 -14.76395,-48.67868 -8.91924,-62.90787 2.80403,-6.82637 3.31087,-7.05791 3.49418,-1.59683 0.33693,10.04003 11.75936,26.35863 22.24604,31.78149 25.72967,13.30534 62.66652,-3.41142 77.28005,-34.97515 11.09507,-23.9638 5.14273,-70.18664 -10.08748,-78.33768 -3.18631,-1.70528 -11.05995,-3.1005 -17.49644,-3.1005 -13.68226,0 -24.42731,9.83653 -39.49177,36.15272 -5.20821,9.09839 -13.9732,20.85401 -19.47777,26.12354 -8.94352,8.56184 -12.13717,9.58097 -30.02419,9.58097 l -20.01655,0 6.47003,14.37144 c 9.26095,20.57068 8.82279,53.99335 -0.97439,74.33978 -8.65704,17.97905 -28.67358,36.18122 -44.67602,40.62666 -15.57802,4.32747 -40.94585,3.76797 -54.876893,-1.21033 z M 165.8338,75.923739 c -8.85472,-15.10934 -14.30406,-43.317581 -8.36834,-43.317581 6.97229,15.126161 21.26491,28.620943 36.56863,38.037101 27.48682,13.30607 55.35848,7.93527 85.80838,-16.53502 6.70348,-5.38696 12.63984,-9.195101 13.19203,-8.462541 7.4352,11.538535 20.2965,20.967563 24.54769,34.375751 0,5.65728 -24.35352,21.938881 -43.57005,29.128621 -47.6295,13.72053 -80.04616,8.29297 -108.17834,-33.226331 z m 55.10392,-27.151087 27.89895,-37.493649 25.13028,10.129483 c -11.78717,9.708131 -17.18582,32.550124 -30.65185,40.191015 -10.64019,-7.843736 -17.19033,0.01374 -22.37738,-12.826849 z"
     style="fill:#000000"
     id="path4"
     inkscape:connector-curvature="0"
     sodipodi:nodetypes="scscsscccscsccsssscsssscscssssssssscsssscccsccccccccc" />
  <path
     id="path3002"
     style="fill:#000000"
     d="M 180.50552,33.221804 202.18413,1.9484942 227.3144,10.522893 c -11.78717,9.708131 -15.63073,32.550123 -29.09676,40.191014 -10.64019,-7.843736 -12.52507,-4.651515 -17.71212,-17.492103 z"
     inkscape:connector-curvature="0"
     sodipodi:nodetypes="ccccc" />
</svg>
